<?xml version="1.0" encoding="UTF-8"?><svg id="uuid-894a65de-6e9e-48ad-b4b5-0fa1f6bd040e" xmlns="http://www.w3.org/2000/svg" viewBox="0 0 2227.53 338.85"><defs><style>.uuid-e46aa563-517a-4613-8cca-85bebc2311d4{font-family:MicrosoftTaiLe, 'Microsoft Tai Le';font-size:263px;}.uuid-555f2538-df06-4716-b2eb-8e19a4f4b9a4{fill:#fff;}.uuid-96731687-ada8-4d8c-9f2b-5fa1258ec885{fill:#861c00;}.uuid-145593dd-62b2-4087-8f04-001787d28e72{fill:#daaa63;}</style></defs><path class="uuid-555f2538-df06-4716-b2eb-8e19a4f4b9a4" d="m0,0h38.63c-1.16.28-2.33.57-3.53.63-1.08-.26-2.18-.04-3.09.6-3.79.92-7.42,2.38-10.82,4.28-3.63,1.85-6.71,4.59-9.65,7.37C6.74,17.68,3.37,23.8,1.57,30.33c-.58.7-.92,1.57-.59,2.47.08.7.06,1.47-.49,1.99-.14,1.87-.3,3.74-.49,5.61V0Z"/><path class="uuid-555f2538-df06-4716-b2eb-8e19a4f4b9a4" d="m193.17,0h319.98v317.01H0v-147.37c.25,2.08.21,4.18.33,6.27,3.88.27,7.77.13,11.65.17,33.63.03,67.26.05,100.89.08,18.65.06,37.3.24,55.95.09,8.1.02,16.2-.22,24.3.05,5.5.19,10.87,2.55,14.79,6.4,3.76,3.54,6.08,8.57,6.21,13.75.27,4.77-1.57,9.37-4.13,13.31-1.05.37-1.61,1.37-2.02,2.33-.36.37-.71.74-1.08,1.1-.52.07-1.05.25-1.31.73-.48.88-1.49,1.18-2.31,1.64-2.06.94-4.14,1.96-6.41,2.27-4.89.55-9.8.3-14.7.28-19.43.02-38.86.04-58.3.06-36.85.06-73.69-.03-110.54-.05-4.39.02-8.78-.13-13.15.32-.02,2.02.22,4.12,1.19,5.92,1.63,3.4,4.97,5.87,8.66,6.58,1.87.21,3.75.16,5.62.16,59.25.03,118.49-.04,177.74-.07,1.48.46,3.01.12,4.39-.49,1.17-.38,2.38-.62,3.56-.97,5.88-1.77,11.32-4.9,15.97-8.91,5.67-5.18,10.01-11.87,12.14-19.27.69-.63.92-1.52.71-2.42.19-1.63.55-3.22.74-4.85.05-45.06-.04-90.13.05-135.19-.1-7.32.02-14.65-.04-21.97-.86-6.87-3.35-13.61-7.37-19.3-.09-.84-.49-1.62-1.31-1.93-.41-.32-.76-.7-1.1-1.09-5.44-6.62-13.16-11.23-21.43-13.33-.61-.66-1.5-.64-2.32-.65-1.38-.26-3.05.22-4.21-.67Zm167.41,73.01c-2.76-.09-5.28-1.33-7.87-2.15-3.55-1.29-7.15-2.42-10.81-3.37-.4.3-.78.61-1.13.95,1.08,1.62,1.93,3.38,3.07,4.96,2.2,3.32,4.68,6.44,7.02,9.68.47.69.94,1.65.37,2.43-3.54,4.98-7.39,9.73-10.8,14.8-.37.39-.29,1.09.23,1.31,1.09.07,2.14-.3,3.17-.59,4.71-1.37,9.41-2.74,14.12-4.12.64-.17,1.31-.47,1.99-.28,1.94,1.48,2.85,3.83,4.21,5.79,2.2,3.11,4.57,6.09,6.74,9.22.65.2,1.31.4,1.98.58,1.04-6.48-.21-13.08.69-19.57,3.04-2.4,7.05-2.68,10.61-3.89,2.4-.82,4.82-1.58,7.21-2.41.85-.23,1.02-1.71.21-2.08-5.89-2.27-11.93-4.16-17.82-6.41-.1-3.98-.2-7.96-.15-11.93-.08-2.78.15-5.64-.82-8.3-4.44,4.83-8.17,10.23-12.22,15.38Zm-121.71,5.24c-.36,38.96-.25,77.93-.19,116.89-.13,8.39-2.65,16.68-7.01,23.83-2.54,3.32-5.26,6.52-8.38,9.31-4.92,4.51-11.22,7.1-17.5,9.11-5.23,1.26-10.64,1.08-15.98,1.2-51.39.03-102.78.06-154.17.09-1.11,0-2.52.07-3.07,1.22-.4,2.72-.22,5.47.06,8.19,3.43.49,6.89.28,10.34.33h82.89c33.09.01,66.18-.08,99.26.23,5.09-.32,9.86,2.22,13.79,5.24,6.06,4.53,8.61,12.87,6.85,20.13-.88,2.48-1.66,5.04-3.09,7.28-1.39,2.26-3.49,3.91-5.65,5.37-3.07,1.77-6.38,3.26-9.92,3.71-64.03.06-128.07.11-192.11.17-.99.08-2.5.6-2.38,1.81.5,4.29,3.35,8.23,7.25,10.08,2.2,1.04,4.7,1.02,7.08,1.02,48.06.05,96.13.09,144.19.14,9.1,0,18.21.06,27.31,0,4.59-.2,9.41.11,13.69-1.84,3.44-1.31,6.83-2.88,9.62-5.31,2.82-2.31,5.28-5.09,7.17-8.2,3.83-6.32,4.64-13.91,4.48-21.15-.19-3.79.77-7.53.67-11.32.04-2.17-.16-4.36.23-6.51.44-3.03.47-6.09.43-9.14-.07-2.8.44-5.56.65-8.33.06-3.39-.03-6.8.23-10.18.41-2.01.38-4.08.45-6.12-.03-3.78.04-7.56.29-11.33.34,3.09.31,6.2.37,9.31.03,21.87.02,43.74-.07,65.6-.07.73-.65,1.3-.72,2.04-.4,2.53-.35,5.15-1.21,7.6-.88,2.7-1.57,5.45-2.4,8.17-.31,1.12-.45,2.31-.23,3.47.34-.05.68-.1,1.03-.15,2.43-2.29,4.45-4.95,6.54-7.54,4.05-5.07,8.15-10.09,12-15.3,1.69-2.39,3.76-4.49,5.45-6.88,7.51-10.39,14.84-20.9,22.05-31.49,5.65-9.06,11.18-18.2,16.76-27.3,3.09-5.85,6.28-11.65,9.37-17.5,3.55-6.97,7-13.99,10.25-21.1,3.75-8,7.01-16.22,10.12-24.49,2.77-7.65,5.46-15.34,7.35-23.26,1.06-3.95,2.45-7.87,2.67-11.99-1.25.59-2.23,1.63-2.78,2.89-3.73,7.75-7.95,15.24-12.29,22.65-2.01,2.86-4.05,5.7-6.07,8.56-2.48,3.39-5.17,6.6-7.91,9.78-2.15,2.16-4.43,4.2-6.62,6.33-4.68,4.12-10.18,7.22-16,9.4-1.64.86-3.52.89-5.31,1.15-3.77.25-7.62.36-11.32-.58-1.88-.77-3.76-1.56-5.63-2.35-4.71-2.22-8.67-5.71-12.4-9.28-1.8-1.64-3.58-3.36-4.93-5.4-.99-1.47-.67-3.28-.71-4.93-.03-12.98.04-25.96.07-38.94-.63-4.37-1.37-8.76-2.76-12.95-1.18-2.82-2.44-5.64-4.05-8.25-3.28-5.17-7.97-9.29-13.02-12.67-1.06-.77-2.3-1.26-3.56-1.62-.74-.16-1.65.31-1.54,1.16Zm58.88,20.4c-11.34.91-21.88,8.87-25.52,19.7-2.09,5.59-2.53,11.83-.95,17.61,2.44,11.18,12.01,20.08,23.03,22.66,2.89.39,5.82.41,8.73.39,13.61-.86,25.86-12.18,27.54-25.76.36-4.45.57-9.08-.99-13.34-.56-1.21-1.12-2.43-1.58-3.69-2.85-6.26-7.8-11.6-14.02-14.61-5-2.46-10.7-3.34-16.24-2.96Zm95.6,63.29c-3.12.5-6.28,1.12-9.15,2.49-5.66,2.41-10.52,6.68-13.6,12.01-4.33,7.08-5.83,16.05-3.28,24.03.99,3.02,2.36,5.92,4.07,8.6,4.35,6.34,11.13,10.95,18.62,12.66,7.01,1.54,14.57.46,20.88-2.99,5.92-3.46,11.04-8.67,13.53-15.14,2.83-6.85,3.06-14.79.44-21.74-2-5.89-6.08-10.95-11.05-14.63-3.36-2.1-6.92-4.03-10.86-4.71-3.14-.73-6.39-.88-9.6-.58Zm-42.4,1.88c-2.15,5.09-4.47,10.11-6.73,15.16-1.12,2.35-2.05,4.79-3.38,7.03-2.86,6.25-6.05,12.34-9.14,18.48-2.6,5.39-5.88,10.41-8.59,15.74-1.21,1.73-1.96,3.73-3.18,5.45-2.05,3.2-3.94,6.5-5.93,9.73-7.18,11.97-15.38,23.31-23.91,34.35-1.25,1.84-3.17,3.1-4.29,5.03-4.16,4.71-8.27,9.5-13.01,13.66-5.02,4.6-10.35,8.88-16.17,12.44-.87.43-.93,1.54-1,2.38,3.33-.46,6.58-1.35,9.8-2.3,2.61-.81,5.33-1.19,7.94-2,4.28-1.17,8.47-2.61,12.72-3.87,10.61-2.74,20.88-6.6,31.25-10.11,7.52-2.48,14.81-5.56,22.2-8.39,12.89-4.91,25.36-10.81,37.73-16.88,5.15-2.57,10.36-5.05,15.36-7.91,5.89-3.13,11.6-6.59,17.34-9.99,6.25-4.06,12.65-7.9,18.63-12.35,4.25-3.17,8.6-6.21,12.68-9.6,3.14-2.29,6.07-4.84,8.93-7.46.1-.64.19-1.29.3-1.92-2.28.94-4.44,2.12-6.56,3.36-4.96,2.54-9.93,5.08-15.01,7.38-7.25,3.11-14.68,5.88-22.36,7.75-4.06,1.07-8.16,1.99-12.34,2.4-7.39.76-15.05.61-22.13-1.84-1.55-.74-3.1-1.48-4.62-2.28-3.31-1.73-6.09-4.35-8.28-7.36-3.65-5.11-6.08-11.1-7.08-17.3-.3-1.59-.81-3.15-.8-4.78-.05-2.56-.39-5.09-.54-7.64-.43-4.12.48-8.22.42-12.35-.03-4.91,1.52-9.71,1.21-14.64-.52.14-1.01.36-1.47.62Zm102.66,5.77c.76,6.35,1.74,12.67,2.76,18.98-1.32.82-2.54,1.79-3.95,2.45-3.19,1.6-6.38,3.2-9.58,4.79-1.8.7-4.01,1.52-4.39,3.69,6.63,1.29,13.38,2.01,19.93,3.67,1.1,6.45,2.24,12.89,3.04,19.39.85.05,2.08.24,2.44-.78,2.7-5.58,5.6-11.05,8.64-16.45,6.26.91,12.49,1.98,18.73,3.06.56-.39,1.13-.75,1.73-1.08-2.78-3.19-5.83-6.14-8.76-9.19-1.72-1.85-3.8-3.42-5.1-5.63,2.74-5.56,5.6-11.06,8.48-16.55.39-.66.45-1.69-.4-2-6.19,2.47-11.99,5.77-18,8.63-4.81-4.46-9.37-9.16-13.9-13.89-.57.3-1.13.61-1.68.92Z"/><path class="uuid-96731687-ada8-4d8c-9f2b-5fa1258ec885" d="m38.63,0h154.54c1.16.89,2.83.42,4.21.67.53.71,1.48,1.18,2.32.65,8.27,2.1,15.98,6.71,21.43,13.33.33.39.69.77,1.1,1.09,0,.38.02.77.03,1.15.38.32.81.59,1.28.78,4.02,5.69,6.51,12.43,7.37,19.3.06,7.32-.06,14.65.04,21.97-.09,45.06,0,90.13-.05,135.19-.19,1.62-.56,3.22-.74,4.85-.72.59-1.23,1.52-.71,2.42-2.13,7.4-6.47,14.1-12.14,19.27-4.65,4.01-10.08,7.14-15.97,8.91-1.18.35-2.39.59-3.56.97-1.46-.38-3.17-.72-4.39.49-59.25.03-118.49.09-177.74.07-1.87,0-3.76.04-5.62-.16-3.69-.71-7.03-3.18-8.66-6.58-.97-1.81-1.21-3.9-1.19-5.92,4.37-.45,8.77-.3,13.15-.32,36.85.02,73.7.11,110.54.05,19.43-.02,38.87-.04,58.3-.06,4.9.01,9.82.27,14.7-.28,2.27-.31,4.35-1.33,6.41-2.27.82-.46,1.83-.76,2.31-1.64.26-.49.79-.67,1.31-.73.36-.36.72-.73,1.08-1.1.76-.21,1.51-.48,2.02-1.11,0-.41,0-.82,0-1.22,2.56-3.94,4.4-8.54,4.13-13.31-.13-5.17-2.44-10.21-6.21-13.75-3.93-3.85-9.29-6.21-14.79-6.4-8.1-.27-16.2-.03-24.3-.05-18.65.16-37.3-.03-55.95-.09-33.63-.03-67.26-.05-100.89-.08-3.89-.04-7.78.1-11.65-.17-.12-2.09-.08-4.19-.33-6.27V40.4c.19-1.87.34-3.74.49-5.61.55-.52.57-1.29.49-1.99.8-.6.99-1.57.59-2.47,1.79-6.53,5.17-12.65,9.97-17.45,2.94-2.78,6.01-5.52,9.65-7.37,3.4-1.89,7.03-3.36,10.82-4.28,1.03.6,2.37.39,3.09-.6,1.2-.07,2.36-.35,3.53-.63Z"/><path class="uuid-145593dd-62b2-4087-8f04-001787d28e72" d="m32.01,1.23c.91-.63,2.01-.85,3.09-.6-.72.98-2.06,1.2-3.09.6Z"/><path class="uuid-145593dd-62b2-4087-8f04-001787d28e72" d="m197.38.67c.83,0,1.71-.02,2.32.65-.84.53-1.79.07-2.32-.65Z"/><path class="uuid-145593dd-62b2-4087-8f04-001787d28e72" d="m222.22,15.74c.82.31,1.22,1.09,1.31,1.93-.47-.19-.9-.46-1.28-.78,0-.38-.02-.77-.03-1.15Z"/><path class="uuid-145593dd-62b2-4087-8f04-001787d28e72" d="m.98,32.8c-.32-.9.02-1.77.59-2.47.4.9.21,1.87-.59,2.47Z"/><path class="uuid-145593dd-62b2-4087-8f04-001787d28e72" d="m360.57,73.01c4.05-5.15,7.79-10.55,12.22-15.38.97,2.66.74,5.52.82,8.3-.04,3.98.05,7.96.15,11.93,5.89,2.25,11.93,4.14,17.82,6.41.81.37.64,1.85-.21,2.08-2.4.83-4.82,1.6-7.21,2.41-3.56,1.21-7.56,1.49-10.61,3.89-.9,6.49.35,13.09-.69,19.57-.67-.19-1.33-.39-1.98-.58-2.17-3.13-4.54-6.12-6.74-9.22-1.36-1.95-2.27-4.31-4.21-5.79-.68-.18-1.35.11-1.99.28-4.71,1.38-9.41,2.75-14.12,4.12-1.03.29-2.09.66-3.17.59-.52-.22-.6-.92-.23-1.31,3.41-5.07,7.26-9.82,10.8-14.8.58-.77.11-1.74-.37-2.43-2.33-3.23-4.82-6.35-7.02-9.68-1.14-1.58-2-3.34-3.07-4.96.35-.34.73-.65,1.13-.95,3.65.95,7.26,2.08,10.81,3.37,2.59.82,5.1,2.06,7.87,2.15Z"/><path class="uuid-145593dd-62b2-4087-8f04-001787d28e72" d="m238.86,78.24c-.12-.85.8-1.32,1.54-1.16,1.26.35,2.49.84,3.56,1.62,5.06,3.38,9.74,7.5,13.02,12.67,1.61,2.61,2.87,5.42,4.05,8.25,1.4,4.2,2.14,8.58,2.76,12.95-.03,12.98-.1,25.96-.07,38.94.04,1.65-.27,3.47.71,4.93,1.35,2.04,3.13,3.76,4.93,5.4,3.73,3.57,7.69,7.06,12.4,9.28,1.87.8,3.75,1.58,5.63,2.35,3.69.93,7.54.83,11.32.58,1.79-.25,3.67-.29,5.31-1.15,5.82-2.18,11.33-5.28,16-9.4,2.18-2.13,4.46-4.17,6.62-6.33,2.74-3.18,5.43-6.39,7.91-9.78,2.01-2.86,4.06-5.7,6.07-8.56,4.35-7.41,8.57-14.9,12.29-22.65.55-1.26,1.53-2.3,2.78-2.89-.22,4.12-1.62,8.04-2.67,11.99-1.89,7.92-4.58,15.61-7.35,23.26-3.11,8.27-6.38,16.48-10.12,24.49-3.25,7.11-6.7,14.13-10.25,21.1-3.1,5.85-6.28,11.65-9.37,17.5-5.58,9.1-11.1,18.24-16.76,27.3-7.22,10.59-14.55,21.11-22.05,31.49-1.69,2.39-3.75,4.49-5.45,6.88-3.86,5.21-7.96,10.24-12,15.3-2.09,2.59-4.11,5.25-6.54,7.54-.34.05-.69.1-1.03.15-.21-1.16-.08-2.34.23-3.47.83-2.72,1.52-5.47,2.4-8.17.85-2.45.8-5.06,1.21-7.6.06-.74.65-1.32.72-2.04.09-21.86.1-43.73.07-65.6-.06-3.1-.03-6.22-.37-9.31-.25,3.77-.31,7.55-.29,11.33-.08,2.04-.04,4.11-.45,6.12-.27,3.39-.17,6.79-.23,10.18-.21,2.78-.72,5.54-.65,8.33.05,3.05.02,6.11-.43,9.14-.39,2.15-.19,4.34-.23,6.51.1,3.79-.86,7.53-.67,11.32.16,7.24-.65,14.83-4.48,21.15-1.89,3.12-4.35,5.89-7.17,8.2-2.79,2.44-6.18,4.01-9.62,5.31-4.28,1.95-9.1,1.64-13.69,1.84-9.1.06-18.2,0-27.31,0-48.06-.05-96.13-.09-144.19-.14-2.38,0-4.88.03-7.08-1.02-3.9-1.84-6.76-5.78-7.25-10.08-.12-1.21,1.39-1.73,2.38-1.81,64.03-.06,128.07-.11,192.11-.17,3.54-.45,6.85-1.93,9.92-3.71,2.16-1.46,4.27-3.11,5.65-5.37,1.43-2.23,2.21-4.8,3.09-7.28,1.76-7.26-.8-15.6-6.85-20.13-3.93-3.02-8.7-5.56-13.79-5.24-33.09-.31-66.18-.22-99.26-.23H42.97c-3.45-.05-6.91.17-10.34-.33-.28-2.72-.46-5.47-.06-8.19.55-1.15,1.96-1.22,3.07-1.22,51.39-.03,102.78-.06,154.17-.09,5.34-.13,10.75.06,15.98-1.2,6.28-2.01,12.57-4.6,17.5-9.11,3.12-2.79,5.84-5.99,8.38-9.31,4.36-7.15,6.89-15.44,7.01-23.83-.07-38.96-.18-77.93.19-116.89Z"/><path class="uuid-145593dd-62b2-4087-8f04-001787d28e72" d="m297.75,98.64c5.54-.38,11.24.5,16.24,2.96,6.22,3.01,11.17,8.34,14.02,14.61.46,1.26,1.02,2.47,1.58,3.69,1.56,4.26,1.34,8.89.99,13.34-1.68,13.58-13.93,24.9-27.54,25.76-2.91.02-5.84,0-8.73-.39-11.01-2.58-20.59-11.48-23.03-22.66-1.58-5.77-1.14-12.02.95-17.61,3.64-10.83,14.19-18.79,25.52-19.7Z"/><path class="uuid-145593dd-62b2-4087-8f04-001787d28e72" d="m393.34,161.93c3.21-.29,6.46-.15,9.6.58,3.94.68,7.5,2.61,10.86,4.71,4.96,3.68,9.05,8.73,11.05,14.63,2.62,6.95,2.39,14.89-.44,21.74-2.49,6.47-7.61,11.68-13.53,15.14-6.3,3.45-13.86,4.53-20.88,2.99-7.49-1.71-14.28-6.32-18.62-12.66-1.71-2.68-3.08-5.58-4.07-8.6-2.55-7.98-1.05-16.94,3.28-24.03,3.09-5.33,7.94-9.6,13.6-12.01,2.87-1.37,6.03-1.99,9.15-2.49Z"/><path class="uuid-145593dd-62b2-4087-8f04-001787d28e72" d="m350.94,163.81c.46-.27.95-.49,1.47-.62.31,4.92-1.23,9.72-1.21,14.64.06,4.12-.85,8.22-.42,12.35.15,2.55.49,5.08.54,7.64,0,1.63.51,3.19.8,4.78,1,6.2,3.43,12.19,7.08,17.3,2.18,3.01,4.97,5.63,8.28,7.36,1.52.8,3.07,1.55,4.62,2.28,7.09,2.45,14.74,2.59,22.13,1.84,4.18-.41,8.28-1.33,12.34-2.4,7.68-1.87,15.1-4.64,22.36-7.75,5.08-2.3,10.05-4.84,15.01-7.38,2.12-1.25,4.28-2.43,6.56-3.36-.11.64-.2,1.28-.3,1.92-2.86,2.62-5.79,5.17-8.93,7.46-4.08,3.39-8.43,6.43-12.68,9.6-5.98,4.46-12.38,8.29-18.63,12.35-5.74,3.4-11.44,6.86-17.34,9.99-5,2.86-10.21,5.34-15.36,7.91-12.37,6.07-24.85,11.97-37.73,16.88-7.39,2.83-14.69,5.91-22.2,8.39-10.37,3.51-20.64,7.37-31.25,10.11-4.25,1.27-8.44,2.7-12.72,3.87-2.61.81-5.33,1.2-7.94,2-3.22.95-6.47,1.83-9.8,2.3.07-.84.13-1.95,1-2.38,5.81-3.56,11.15-7.85,16.17-12.44,4.74-4.16,8.84-8.95,13.01-13.66,1.13-1.94,3.04-3.2,4.29-5.03,8.53-11.05,16.73-22.38,23.91-34.35,1.99-3.24,3.88-6.54,5.93-9.73,1.22-1.73,1.97-3.72,3.18-5.45,2.71-5.33,5.99-10.35,8.59-15.74,3.09-6.14,6.28-12.23,9.14-18.48,1.33-2.24,2.26-4.69,3.38-7.03,2.26-5.04,4.58-10.07,6.73-15.16Z"/><path class="uuid-145593dd-62b2-4087-8f04-001787d28e72" d="m453.6,169.58c.55-.31,1.11-.62,1.68-.92,4.54,4.73,9.09,9.43,13.9,13.89,6.01-2.86,11.81-6.16,18-8.63.86.31.79,1.34.4,2-2.88,5.49-5.74,10.99-8.48,16.55,1.3,2.21,3.38,3.78,5.1,5.63,2.93,3.05,5.98,6,8.76,9.19-.6.33-1.17.7-1.73,1.08-6.23-1.08-12.47-2.15-18.73-3.06-3.04,5.4-5.94,10.87-8.64,16.45-.36,1.02-1.6.83-2.44.78-.8-6.5-1.94-12.94-3.04-19.39-6.56-1.66-13.3-2.38-19.93-3.67.38-2.17,2.59-2.99,4.39-3.69,3.2-1.59,6.39-3.19,9.58-4.79,1.41-.65,2.63-1.63,3.95-2.45-1.02-6.31-2.01-12.63-2.76-18.98Z"/><path class="uuid-145593dd-62b2-4087-8f04-001787d28e72" d="m229.44,201.39c-.53-.9-.01-1.83.71-2.42.22.9-.02,1.79-.71,2.42Z"/><path class="uuid-145593dd-62b2-4087-8f04-001787d28e72" d="m207.97,212.09c.41-.96.97-1.96,2.02-2.33,0,.4,0,.81,0,1.22-.51.63-1.27.91-2.02,1.11Z"/><path class="uuid-145593dd-62b2-4087-8f04-001787d28e72" d="m193.39,231.03c1.22-1.21,2.93-.87,4.39-.49-1.38.61-2.91.94-4.39.49Z"/><text class="uuid-e46aa563-517a-4613-8cca-85bebc2311d4" transform="translate(540.12 248.31)"><tspan x="0" y="0">BOOK LOVERS</tspan></text></svg>